ply
format ascii 1.0
comment Created by Blender 2.75 (sub 0) - www.blender.org, source file: ''
element vertex 24
property float x
property float y
property float z
property float nx
property float ny
property float nz
property uchar red
property uchar green
property uchar blue
element face 6
property list uchar uint vertex_indices
end_header
-1.000000 -1.000000 1.000000 -0.000000 -1.000000 0.000000 255 249 84
-1.000000 -1.000000 -1.000000 -0.000000 -1.000000 0.000000 255 251 124
1.000000 -1.000000 -1.000000 -0.000000 -1.000000 0.000000 255 250 91
1.000000 -1.000000 1.000000 -0.000000 -1.000000 0.000000 255 249 83
-1.000000 1.000000 0.999999 0.000000 1.000000 -0.000000 77 237 248
1.000000 1.000000 1.000000 0.000000 1.000000 -0.000000 65 251 221
1.000000 1.000000 -1.000000 0.000000 1.000000 -0.000000 43 179 139
-0.999999 1.000000 -1.000001 0.000000 1.000000 -0.000000 44 149 254
-1.000000 -1.000000 1.000000 -1.000000 0.000000 -0.000000 255 64 164
-1.000000 1.000000 0.999999 -1.000000 0.000000 -0.000000 255 64 164
-0.999999 1.000000 -1.000001 -1.000000 0.000000 -0.000000 197 119 191
-1.000000 -1.000000 -1.000000 -1.000000 0.000000 -0.000000 255 64 164
-1.000000 -1.000000 -1.000000 0.000000 -0.000000 -1.000000 38 74 255
-0.999999 1.000000 -1.000001 0.000000 -0.000000 -1.000000 39 84 255
1.000000 1.000000 -1.000000 0.000000 -0.000000 -1.000000 64 130 255
1.000000 -1.000000 -1.000000 0.000000 -0.000000 -1.000000 33 70 255
1.000000 -1.000000 -1.000000 1.000000 -0.000000 0.000000 37 252 12
1.000000 1.000000 -1.000000 1.000000 -0.000000 0.000000 46 178 133
1.000000 1.000000 1.000000 1.000000 -0.000000 0.000000 72 249 163
1.000000 -1.000000 1.000000 1.000000 -0.000000 0.000000 74 254 63
-1.000000 1.000000 0.999999 -0.000000 0.000000 1.000000 255 52 69
-1.000000 -1.000000 1.000000 -0.000000 0.000000 1.000000 255 52 69
1.000000 -1.000000 1.000000 -0.000000 0.000000 1.000000 255 56 103
1.000000 1.000000 1.000000 -0.000000 0.000000 1.000000 255 59 126
4 0 1 2 3
4 4 5 6 7
4 8 9 10 11
4 12 13 14 15
4 16 17 18 19
4 20 21 22 23
