# Blender v2.75 (sub 0) OBJ File: ''
# www.blender.org
mtllib ThreeCubesobj.mtl
o ColoredCube.002
v 1.760375 -1.222432 -2.922167
v 3.397219 -0.716414 -3.954005
v 2.969155 1.218514 -3.684161
v 1.332312 0.712496 -2.652323
v 0.693837 -1.222432 -4.614058
v 0.265772 0.712496 -4.344213
v 1.902616 1.218514 -5.376052
v 2.330680 -0.716413 -5.645896
v 1.760375 -1.222432 -2.922167
v 0.693837 -1.222432 -4.614058
v 2.330680 -0.716413 -5.645896
v 3.397219 -0.716414 -3.954005
v 3.397219 -0.716414 -3.954005
v 2.330680 -0.716413 -5.645896
v 1.902616 1.218514 -5.376052
v 2.969155 1.218514 -3.684161
v 2.969155 1.218514 -3.684161
v 1.902616 1.218514 -5.376052
v 0.265772 0.712496 -4.344213
v 1.332312 0.712496 -2.652323
v 0.693837 -1.222432 -4.614058
v 1.760375 -1.222432 -2.922167
v 1.332312 0.712496 -2.652323
v 0.265772 0.712496 -4.344213
vn 0.533300 -0.000000 0.845900
vn -0.533300 -0.000000 -0.845900
vn 0.214000 -0.967500 -0.134900
vn 0.818400 0.253000 -0.515900
vn -0.214000 0.967500 0.134900
vn -0.818400 -0.253000 0.515900
usemtl None
s 1
f 2//1 3//1 4//1
f 5//2 6//2 7//2
f 10//3 11//3 12//3
f 14//4 15//4 16//4
f 18//5 19//5 20//5
f 22//6 23//6 24//6
f 1//1 2//1 4//1
f 8//2 5//2 7//2
f 9//3 10//3 12//3
f 13//4 14//4 16//4
f 17//5 18//5 20//5
f 21//6 22//6 24//6
o ColoredCube.001
v -1.000000 1.000000 1.000000
v -1.000000 -1.000000 1.000000
v 1.000000 -1.000000 1.000000
v 1.000000 1.000000 1.000000
v -1.000000 0.999999 -1.000000
v 1.000000 1.000000 -1.000000
v 1.000000 -1.000000 -1.000000
v -0.999999 -1.000001 -1.000000
v -1.000000 1.000000 1.000000
v -1.000000 0.999999 -1.000000
v -0.999999 -1.000001 -1.000000
v -1.000000 -1.000000 1.000000
v -1.000000 -1.000000 1.000000
v -0.999999 -1.000001 -1.000000
v 1.000000 -1.000000 -1.000000
v 1.000000 -1.000000 1.000000
v 1.000000 -1.000000 1.000000
v 1.000000 -1.000000 -1.000000
v 1.000000 1.000000 -1.000000
v 1.000000 1.000000 1.000000
v -1.000000 0.999999 -1.000000
v -1.000000 1.000000 1.000000
v 1.000000 1.000000 1.000000
v 1.000000 1.000000 -1.000000
vn 0.000000 0.000000 1.000000
vn 0.000000 -0.000000 -1.000000
vn -1.000000 -0.000000 -0.000000
vn 0.000000 -1.000000 0.000000
vn 1.000000 0.000000 0.000000
vn -0.000000 1.000000 -0.000000
usemtl None
s 1
f 26//7 27//7 28//7
f 29//8 30//8 31//8
f 34//9 35//9 36//9
f 38//10 39//10 40//10
f 42//11 43//11 44//11
f 46//12 47//12 48//12
f 25//7 26//7 28//7
f 32//8 29//8 31//8
f 33//9 34//9 36//9
f 37//10 38//10 40//10
f 41//11 42//11 44//11
f 45//12 46//12 48//12
o ColoredCube
v -0.619663 6.373526 5.451081
v -0.619663 4.786899 6.668707
v 1.380337 4.786899 6.668707
v 1.380337 6.373526 5.451081
v -0.619663 5.155899 3.864454
v 1.380337 5.155900 3.864454
v 1.380337 3.569273 5.082080
v -0.619662 3.569272 5.082081
v -0.619663 6.373526 5.451081
v -0.619663 5.155899 3.864454
v -0.619662 3.569272 5.082081
v -0.619663 4.786899 6.668707
v -0.619663 4.786899 6.668707
v -0.619662 3.569272 5.082081
v 1.380337 3.569273 5.082080
v 1.380337 4.786899 6.668707
v 1.380337 4.786899 6.668707
v 1.380337 3.569273 5.082080
v 1.380337 5.155900 3.864454
v 1.380337 6.373526 5.451081
v -0.619663 5.155899 3.864454
v -0.619663 6.373526 5.451081
v 1.380337 6.373526 5.451081
v 1.380337 5.155900 3.864454
vn 0.000000 0.608800 0.793300
vn -0.000000 -0.608800 -0.793300
vn -1.000000 -0.000000 -0.000000
vn 0.000000 -0.793300 0.608800
vn 1.000000 0.000000 0.000000
vn -0.000000 0.793300 -0.608800
usemtl None
s 1
f 50//13 51//13 52//13
f 54//14 55//14 56//14
f 58//15 59//15 60//15
f 62//16 63//16 64//16
f 66//17 67//17 68//17
f 70//18 71//18 72//18
f 49//13 50//13 52//13
f 53//14 54//14 56//14
f 57//15 58//15 60//15
f 61//16 62//16 64//16
f 65//17 66//17 68//17
f 69//18 70//18 72//18
